<svg width="44" height="49" viewBox="0 0 44 49" fill="none" xmlns="http://www.w3.org/2000/svg">
<path d="M34.8966 0C32.4831 0.00272106 30.1691 0.962554 28.4624 2.66891C26.7558 4.37527 25.7957 6.68881 25.793 9.102V15.1697H18.207V9.102C18.1946 6.69611 17.2301 4.39297 15.5242 2.69609C13.8183 0.999215 11.5098 0.0466526 9.10348 0.0466526C6.69713 0.0466526 4.38867 0.999215 2.68278 2.69609C0.976887 4.39297 0.0123329 6.69611 0 9.102V39.442C0.0123329 41.8479 0.976887 44.1509 2.68278 45.8477C4.38867 47.5446 6.69713 48.4973 9.10348 48.4973C11.5098 48.4973 13.8183 47.5446 15.5242 45.8477C17.2301 44.1509 18.1946 41.8479 18.207 39.442V36.4079L15.1724 34.8909V39.442C15.1724 40.6422 14.8165 41.8153 14.1496 42.8132C13.4827 43.8111 12.5348 44.5887 11.4258 45.0481C10.3168 45.5072 9.09654 45.6275 7.91924 45.3934C6.74197 45.1591 5.66056 44.5813 4.8118 43.7327C3.96304 42.884 3.38502 41.8027 3.15087 40.6257C2.91674 39.4484 3.03695 38.2284 3.49634 37.1196C3.95572 36.011 4.73365 35.0631 5.73175 34.3964C6.72982 33.7297 7.90325 33.3739 9.1036 33.3739H34.8966C36.0971 33.3739 37.2705 33.7297 38.2683 34.3966C39.2665 35.0633 40.0443 36.011 40.5037 37.1198C40.9631 38.2286 41.0834 39.4487 40.849 40.6257C40.6149 41.8029 40.0369 42.884 39.188 43.7327C38.3394 44.5813 37.258 45.1593 36.0806 45.3934C34.9033 45.6275 33.6831 45.5072 32.574 45.0481C31.4652 44.5887 30.5173 43.8111 29.8503 42.8132C29.1836 41.8153 28.8276 40.6422 28.8276 39.442V36.4079L25.793 34.8909V39.442C25.8055 41.8479 26.7699 44.1509 28.4758 45.8477C30.1818 47.5446 32.4903 48.4973 34.8964 48.4973C37.3027 48.4973 39.6113 47.5446 41.3172 45.8477C43.0232 44.1509 43.9876 41.8479 44 39.442V9.102C43.9974 6.68886 43.0373 4.37535 41.3306 2.669C39.6242 0.962645 37.3102 0.00278433 34.8966 0ZM28.8276 9.102C28.8276 7.90184 29.1834 6.72863 29.8503 5.73072C30.5173 4.73282 31.4649 3.95503 32.574 3.49571C33.6828 3.03642 34.9031 2.91621 36.0806 3.15032C37.2578 3.38442 38.3391 3.96232 39.188 4.81094C40.0369 5.65956 40.6149 6.74078 40.849 7.91786C41.0834 9.09494 40.9631 10.315 40.5037 11.4238C40.0443 12.5326 39.2665 13.4803 38.2686 14.1471C37.2705 14.8139 36.0971 15.1697 34.8966 15.1697H28.8276V9.102ZM9.1036 3.03401C10.7126 3.0359 12.2552 3.67583 13.3929 4.81338C14.5306 5.95094 15.1706 7.49326 15.1724 9.102V15.1697H9.1036C8.3034 15.1748 7.51012 15.0215 6.7694 14.7188C6.02868 14.4161 5.35512 13.97 4.78753 13.406C4.21991 12.8421 3.76944 12.1715 3.46207 11.4328C3.15469 10.6941 2.99644 9.90193 2.99644 9.10188C2.99644 8.3018 3.15469 7.50964 3.46207 6.77095C3.76944 6.03226 4.21991 5.36165 4.78753 4.79769C5.35512 4.23376 6.02868 3.78759 6.7694 3.48491C7.51012 3.18222 8.3034 3.02898 9.1036 3.03401ZM34.8966 30.3393H9.1036C6.86294 30.3374 4.70094 31.1651 3.03453 32.6627V15.8803C4.70097 17.3779 6.86297 18.2054 9.1036 18.2035H34.8966C37.1373 18.2054 39.2992 17.3778 40.9655 15.8803V32.6627C39.2992 31.1651 37.1373 30.3374 34.8966 30.3393Z" fill="#FFB904"/>
</svg>
